<mxfile host="Electron" modified="2023-09-21T06:46:13.579Z" agent="Mozilla/5.0 (Windows NT 10.0; Win64; x64) AppleWebKit/537.36 (KHTML, like Gecko) draw.io/21.6.1 Chrome/112.0.5615.204 Electron/24.6.1 Safari/537.36" etag="8HUtT5sPgwlRCLFpeH79" version="21.6.1" type="device">
  <diagram name="Page-1" id="LJhDoYM8GGtGKUL-O_BZ">
    <mxGraphModel dx="1388" dy="858" grid="1" gridSize="10" guides="1" tooltips="1" connect="1" arrows="1" fold="1" page="1" pageScale="1" pageWidth="1169" pageHeight="1654" math="0" shadow="0">
      <root>
        <mxCell id="0" />
        <mxCell id="1" parent="0" />
        <mxCell id="R9aIYXGMt73mxW7MGIt1-1" value="Vertex Shader :&amp;nbsp;&lt;br&gt;Pour chaque sommet" style="rounded=0;whiteSpace=wrap;html=1;" parent="1" vertex="1">
          <mxGeometry x="420" y="290" width="120" height="170" as="geometry" />
        </mxCell>
        <mxCell id="R9aIYXGMt73mxW7MGIt1-2" value="" style="endArrow=classic;html=1;rounded=0;fontColor=#FF0000;strokeColor=#FF0000;" parent="1" edge="1">
          <mxGeometry width="50" height="50" relative="1" as="geometry">
            <mxPoint x="360" y="376.76" as="sourcePoint" />
            <mxPoint x="420" y="376.76" as="targetPoint" />
          </mxGeometry>
        </mxCell>
        <mxCell id="R9aIYXGMt73mxW7MGIt1-3" value="VBO" style="text;html=1;strokeColor=none;fillColor=none;align=center;verticalAlign=middle;whiteSpace=wrap;rounded=0;fontColor=#FF0000;" parent="1" vertex="1">
          <mxGeometry x="360" y="350" width="60" height="30" as="geometry" />
        </mxCell>
        <mxCell id="R9aIYXGMt73mxW7MGIt1-4" value="Uniform" style="text;html=1;strokeColor=none;fillColor=none;align=center;verticalAlign=middle;whiteSpace=wrap;rounded=0;fontColor=#3333FF;" parent="1" vertex="1">
          <mxGeometry x="460" y="490" width="60" height="30" as="geometry" />
        </mxCell>
        <mxCell id="R9aIYXGMt73mxW7MGIt1-5" value="" style="endArrow=classic;html=1;rounded=0;fontColor=#FF0000;strokeColor=#3333FF;" parent="1" edge="1">
          <mxGeometry width="50" height="50" relative="1" as="geometry">
            <mxPoint x="490" y="490" as="sourcePoint" />
            <mxPoint x="490" y="460" as="targetPoint" />
          </mxGeometry>
        </mxCell>
        <mxCell id="R9aIYXGMt73mxW7MGIt1-12" value="" style="endArrow=classic;html=1;rounded=0;" parent="1" edge="1">
          <mxGeometry width="50" height="50" relative="1" as="geometry">
            <mxPoint x="540" y="372.5" as="sourcePoint" />
            <mxPoint x="620" y="372.5" as="targetPoint" />
          </mxGeometry>
        </mxCell>
        <mxCell id="j9u7WpE4ALorNl15ndxJ-19" value="Geometry Shader :&lt;br&gt;Pour chaque face" style="rounded=0;whiteSpace=wrap;html=1;" vertex="1" parent="1">
          <mxGeometry x="800" y="290" width="120" height="170" as="geometry" />
        </mxCell>
        <mxCell id="j9u7WpE4ALorNl15ndxJ-35" value="" style="endArrow=classic;html=1;rounded=0;" edge="1" parent="1">
          <mxGeometry width="50" height="50" relative="1" as="geometry">
            <mxPoint x="720" y="350" as="sourcePoint" />
            <mxPoint x="800" y="350" as="targetPoint" />
          </mxGeometry>
        </mxCell>
        <mxCell id="j9u7WpE4ALorNl15ndxJ-36" value="" style="endArrow=classic;html=1;rounded=0;" edge="1" parent="1">
          <mxGeometry width="50" height="50" relative="1" as="geometry">
            <mxPoint x="720" y="372.02" as="sourcePoint" />
            <mxPoint x="800" y="372.02" as="targetPoint" />
          </mxGeometry>
        </mxCell>
        <mxCell id="j9u7WpE4ALorNl15ndxJ-37" value="" style="endArrow=classic;html=1;rounded=0;" edge="1" parent="1">
          <mxGeometry width="50" height="50" relative="1" as="geometry">
            <mxPoint x="720" y="394.26" as="sourcePoint" />
            <mxPoint x="800" y="394.26" as="targetPoint" />
          </mxGeometry>
        </mxCell>
        <mxCell id="j9u7WpE4ALorNl15ndxJ-38" value="3 sommets d&#39;un face" style="text;html=1;strokeColor=none;fillColor=none;align=center;verticalAlign=middle;whiteSpace=wrap;rounded=0;" vertex="1" parent="1">
          <mxGeometry x="720" y="312.5" width="70" height="30" as="geometry" />
        </mxCell>
        <mxCell id="j9u7WpE4ALorNl15ndxJ-39" value="" style="endArrow=classic;html=1;rounded=0;" edge="1" parent="1">
          <mxGeometry width="50" height="50" relative="1" as="geometry">
            <mxPoint x="920" y="352.63" as="sourcePoint" />
            <mxPoint x="1000" y="352.63" as="targetPoint" />
          </mxGeometry>
        </mxCell>
        <mxCell id="j9u7WpE4ALorNl15ndxJ-40" value="" style="endArrow=classic;html=1;rounded=0;" edge="1" parent="1">
          <mxGeometry width="50" height="50" relative="1" as="geometry">
            <mxPoint x="920" y="374.65" as="sourcePoint" />
            <mxPoint x="1000" y="374.65" as="targetPoint" />
          </mxGeometry>
        </mxCell>
        <mxCell id="j9u7WpE4ALorNl15ndxJ-41" value="" style="endArrow=classic;html=1;rounded=0;" edge="1" parent="1">
          <mxGeometry width="50" height="50" relative="1" as="geometry">
            <mxPoint x="920" y="396.89" as="sourcePoint" />
            <mxPoint x="1000" y="396.89" as="targetPoint" />
          </mxGeometry>
        </mxCell>
        <mxCell id="j9u7WpE4ALorNl15ndxJ-42" value="3 sommets d&#39;une face" style="text;html=1;strokeColor=none;fillColor=none;align=center;verticalAlign=middle;whiteSpace=wrap;rounded=0;" vertex="1" parent="1">
          <mxGeometry x="920" y="310" width="73.5" height="30" as="geometry" />
        </mxCell>
        <mxCell id="j9u7WpE4ALorNl15ndxJ-44" value="fragment Shader :&lt;br&gt;Pour chaque pixel" style="rounded=0;whiteSpace=wrap;html=1;" vertex="1" parent="1">
          <mxGeometry x="1170" y="290" width="120" height="170" as="geometry" />
        </mxCell>
        <mxCell id="j9u7WpE4ALorNl15ndxJ-46" value="" style="endArrow=classic;html=1;rounded=0;exitX=1;exitY=0.5;exitDx=0;exitDy=0;" edge="1" parent="1" source="j9u7WpE4ALorNl15ndxJ-56">
          <mxGeometry width="50" height="50" relative="1" as="geometry">
            <mxPoint x="1090" y="374.76" as="sourcePoint" />
            <mxPoint x="1170" y="374.76" as="targetPoint" />
          </mxGeometry>
        </mxCell>
        <mxCell id="j9u7WpE4ALorNl15ndxJ-48" value="1 point" style="text;html=1;strokeColor=none;fillColor=none;align=center;verticalAlign=middle;whiteSpace=wrap;rounded=0;" vertex="1" parent="1">
          <mxGeometry x="1100" y="342.5" width="60" height="30" as="geometry" />
        </mxCell>
        <mxCell id="j9u7WpE4ALorNl15ndxJ-50" value="" style="endArrow=classic;html=1;rounded=0;strokeColor=#CC00CC;" edge="1" parent="1">
          <mxGeometry width="50" height="50" relative="1" as="geometry">
            <mxPoint x="1290" y="374.65" as="sourcePoint" />
            <mxPoint x="1370" y="374.65" as="targetPoint" />
          </mxGeometry>
        </mxCell>
        <mxCell id="j9u7WpE4ALorNl15ndxJ-54" value="&lt;font color=&quot;#cc00cc&quot;&gt;La couleur du pixel&lt;/font&gt;" style="text;html=1;strokeColor=none;fillColor=none;align=center;verticalAlign=middle;whiteSpace=wrap;rounded=0;" vertex="1" parent="1">
          <mxGeometry x="1296.5" y="340" width="60" height="30" as="geometry" />
        </mxCell>
        <mxCell id="j9u7WpE4ALorNl15ndxJ-55" value="Connnection des points avec le EBO" style="rounded=1;whiteSpace=wrap;html=1;strokeColor=#B3B3B3;fillColor=#B3B3B3;" vertex="1" parent="1">
          <mxGeometry x="620" y="300" width="100" height="140" as="geometry" />
        </mxCell>
        <mxCell id="j9u7WpE4ALorNl15ndxJ-56" value="Rasterisation : interpolation des 3 sommets vers un point de la face" style="rounded=1;whiteSpace=wrap;html=1;strokeColor=#B3B3B3;fillColor=#B3B3B3;" vertex="1" parent="1">
          <mxGeometry x="1000" y="305" width="100" height="140" as="geometry" />
        </mxCell>
        <mxCell id="j9u7WpE4ALorNl15ndxJ-58" value="" style="endArrow=classic;html=1;rounded=0;fontColor=#FF0000;strokeColor=#3333FF;" edge="1" parent="1">
          <mxGeometry width="50" height="50" relative="1" as="geometry">
            <mxPoint x="1200" y="490" as="sourcePoint" />
            <mxPoint x="1200" y="460" as="targetPoint" />
          </mxGeometry>
        </mxCell>
        <mxCell id="j9u7WpE4ALorNl15ndxJ-59" value="Uniform" style="text;html=1;strokeColor=none;fillColor=none;align=center;verticalAlign=middle;whiteSpace=wrap;rounded=0;fontColor=#3333FF;" vertex="1" parent="1">
          <mxGeometry x="1170" y="490" width="60" height="30" as="geometry" />
        </mxCell>
        <mxCell id="j9u7WpE4ALorNl15ndxJ-60" value="" style="endArrow=classic;html=1;rounded=0;fontColor=#FF0000;strokeColor=#00CC00;" edge="1" parent="1">
          <mxGeometry width="50" height="50" relative="1" as="geometry">
            <mxPoint x="1260" y="490" as="sourcePoint" />
            <mxPoint x="1260" y="460" as="targetPoint" />
          </mxGeometry>
        </mxCell>
        <mxCell id="j9u7WpE4ALorNl15ndxJ-61" value="UBO" style="text;html=1;strokeColor=none;fillColor=none;align=center;verticalAlign=middle;whiteSpace=wrap;rounded=0;fontColor=#00CC00;" vertex="1" parent="1">
          <mxGeometry x="1230" y="490" width="60" height="30" as="geometry" />
        </mxCell>
        <mxCell id="j9u7WpE4ALorNl15ndxJ-63" value="1 sommet" style="text;html=1;strokeColor=none;fillColor=none;align=center;verticalAlign=middle;whiteSpace=wrap;rounded=0;" vertex="1" parent="1">
          <mxGeometry x="540" y="340" width="70" height="30" as="geometry" />
        </mxCell>
      </root>
    </mxGraphModel>
  </diagram>
</mxfile>
